<svg width="24" height="24" viewBox="0 0 24 24" fill="none" xmlns="http://www.w3.org/2000/svg">
<path d="M7.91006 9.72346C6.90989 2.72365 16.9504 3.09109 15.4504 9.59124L8.45019 14.5915C6.95019 21.0916 16.9504 21.0913 15.9502 14.0915" stroke="#cac3c3" stroke-width="2" stroke-linecap="round" stroke-linejoin="round"/>
<path d="M10.5574 7.74976H5.40356C5.23466 7.74976 5.14181 7.94618 5.24902 8.0767L7.20773 10.4613C7.60777 10.9484 8.35316 10.9484 8.75321 10.4613L10.7119 8.0767C10.8191 7.94618 10.7263 7.74976 10.5574 7.74976Z" fill="#cac3c3"/>
<path d="M18.5964 15.7439H13.4426C13.2737 15.7439 13.1809 15.5475 13.2881 15.417L15.2468 13.0323C15.6468 12.5453 16.3922 12.5453 16.7923 13.0323L18.751 15.417C18.8582 15.5475 18.7653 15.7439 18.5964 15.7439Z" fill="#cac3c3"/>
</svg>
