<svg width="24" height="24" viewBox="0 0 24 24" fill="none" xmlns="http://www.w3.org/2000/svg">
<path fill-rule="evenodd" clip-rule="evenodd" d="M5 6C5 5.44771 5.44772 5 6 5H18C18.5523 5 19 5.44772 19 6V15C19 15.5523 18.5523 16 18 16H12.8431C12.6207 16 12.4047 16.0741 12.2292 16.2106L8.32279 19.2489C8.19142 19.3511 8 19.2575 8 19.0911V16.3C8 16.1343 7.86569 16 7.7 16H6C5.44772 16 5 15.5523 5 15V6ZM13 7.1C13 7.04477 12.9552 7 12.9 7H11.1C11.0448 7 11 7.04477 11 7.1V10.9C11 10.9552 11.0448 11 11.1 11H12.9C12.9552 11 13 10.9552 13 10.9V7.1ZM13 12.1C13 12.0448 12.9552 12 12.9 12H11.1C11.0448 12 11 12.0448 11 12.1V13.9C11 13.9552 11.0448 14 11.1 14H12.9C12.9552 14 13 13.9552 13 13.9V12.1Z" fill="#cac3c3"/>
</svg>
